<svg id="Layer_1" data-name="Layer 1" xmlns="http://www.w3.org/2000/svg" viewBox="0 0 125.01 125.01"><defs><style>.cls-1,.cls-5{fill:#2484f2;}.cls-1,.cls-3,.cls-4,.cls-5,.cls-7{fill-rule:evenodd;}.cls-2{fill:#b6d6e1;}.cls-3{fill:#ffc466;}.cls-4{fill:#ffb13d;}.cls-5,.cls-7,.cls-8{opacity:0.2;}.cls-6{fill:#ffc46e;}.cls-7,.cls-8{fill:#dcf3fa;}</style></defs><title>spritzr-date-icons-drinks</title><g id="champagne"><path class="cls-1" d="M62.5,0A62.5,62.5,0,1,1,0,62.5,62.5,62.5,0,0,1,62.5,0Z" transform="translate(0)"/><path class="cls-2" d="M48.77,32.93c-9.18-2.87-14.91-4.15-15.87-1.11,0,0-6.9,14.42-10.69,38.8-1.67,10.73.58,18.08,2.23,23.45,0.12,0.38.45,1.6,0.51,1.88l-3.1,14q2.05,1.76,4.25,3.34l6.15-15.07c0.48-.47,1.83-1.53,1.84-1.54v0c4.37-3.45,10.2-8.21,14.81-17.72,10.76-22.2,13.33-38,13.33-38C62.71,38.71,57.95,35.8,48.77,32.93Z" transform="translate(0)"/><path class="cls-2" d="M105.84,93.79c0-.28.27-1.52,0.35-1.91,1.21-5.48,2.86-13,.32-23.55-5.75-24-13.8-37.81-13.8-37.81-1.19-3-7.23-2.57-16.14,1S63.06,39.07,64.25,42c0,0,3.83,15.52,16.36,36.77C86,87.9,92.17,92.17,96.81,95.25v0s1.44,1,2,1.38l6,11.88q2.25-2.06,4.28-4.34Z" transform="translate(0)"/><path class="cls-3" d="M67.61,46.65c-1.29-3.21,4.63-3.08,7.09-.62s11.65,2,17.45,2c5,0,4.24-3.46,6,1.57s6.63,18,6.94,25.29-2.47,14.34-4,15-11.41-1.54-19.43-14C74.69,65,69.71,51.85,67.61,46.65Z" transform="translate(0)"/><path class="cls-4" d="M101.07,89.82c1.54-.62,4.32-7.71,4-15a32.62,32.62,0,0,0-.69-5c-0.05,1.32-.13,2.83-0.24,4.51-0.46,6.94-5.4,10.64-14.8,3.7C81.69,72.44,71.7,51.94,68.27,44.55a1.48,1.48,0,0,0-.66,2.1c2.09,5.21,7.08,18.31,14,29.14C89.66,88.28,99.53,90.43,101.07,89.82Z" transform="translate(0)"/><path class="cls-3" d="M59.24,45.86c1-3.3-2.88-4.08-4.5,1.81-1.52,5.53-10.06,6.62-20.62,6.16-5-.21-4.51-3.11-5.84,2S23.9,69.77,24.18,77,27.8,91.11,29.39,91.6,40.63,89.14,47.61,76C53.67,64.68,57.57,51.22,59.24,45.86Z" transform="translate(0)"/><path class="cls-4" d="M58.58,43.39C55.92,50.62,47.45,72.59,40.12,79c-8.81,7.68-14,4.39-15.05-2.49-0.25-1.7-.45-3.23-0.61-4.56a31.35,31.35,0,0,0-.27,5.1c0.28,7.25,3.62,14.09,5.21,14.58S40.63,89.14,47.61,76c6.05-11.36,10-24.82,11.63-30.18C59.65,44.55,59.27,43.65,58.58,43.39Z" transform="translate(0)"/><path class="cls-5" d="M58.72,38.6A154.43,154.43,0,0,1,46,77.53C39.53,90.9,31.78,93.73,30.08,98.25c-0.92,2.44-3.24,8.82-5.18,14.18,0.39,0.3.8,0.58,1.2,0.87l6.15-15.07c0.48-.47,1.83-1.53,1.84-1.54v0c4.37-3.45,10.2-8.21,14.81-17.72C58.74,58.65,61.72,43.82,62.2,41.07a3.14,3.14,0,0,0-.59-1.23C58.88,36.61,58.72,38.6,58.72,38.6Z" transform="translate(0)"/><path class="cls-5" d="M105.94,107.41c-2-4.44-4.11-9-5-10.91-2.06-4.37-4.54-2.63-12.08-15.42A222.63,222.63,0,0,1,71,42s-3.61,1-5.44.49a2,2,0,0,1-1.52-1.11c0.15,0.62,4,16.12,16.52,37.37C86,87.9,92.17,92.17,96.81,95.25v0s1.44,1,2,1.38l6,11.88C105.17,108.17,105.55,107.79,105.94,107.41Z" transform="translate(0)"/><path class="cls-6" d="M60.91,31.3c1.21-6.57-.93-17.13-6.31-17.55-4.94-.39-6,4-2.79,7.59,2.55,2.81,5.84,5.91,6.94,8.66C60.23,33.65,60.62,32.9,60.91,31.3Z" transform="translate(0)"/><path class="cls-6" d="M64.73,31.7C64.87,27.39,67,19.3,71,19.5,74,19.65,75,23.13,72.45,25.38c-2.12,1.85-4.79,3.89-5.79,5.85C65.43,33.63,64.69,32.91,64.73,31.7Z" transform="translate(0)"/><path class="cls-4" d="M66.66,31.23c1-2,3.67-4,5.79-5.85,2.37-2.06,1.72-5.16-.78-5.77,0.48,1.17.94,2.87,0.27,4.1-1.11,2-4.56,3.27-5.89,6.41a15.44,15.44,0,0,0-.87,2.7C65.52,32.88,66,32.47,66.66,31.23Z" transform="translate(0)"/><path class="cls-4" d="M53.36,13.77c-3.85.4-4.49,4.33-1.55,7.57,2.55,2.81,5.84,5.91,6.94,8.66A8.48,8.48,0,0,0,60,32.46c0.19-5-3.71-9-6.74-12.71C51.37,17.43,52.33,15.17,53.36,13.77Z" transform="translate(0)"/><path class="cls-5" d="M61.4,39.94c-0.66,2.53-27.61-6.64-27-8.78C35.19,28.59,62.08,37.35,61.4,39.94Z" transform="translate(0)"/><path class="cls-7" d="M68.4,46a0.71,0.71,0,1,1-.25.54A0.49,0.49,0,0,1,68.4,46Zm5.4-.77a0.71,0.71,0,1,1-.25.54A0.49,0.49,0,0,1,73.8,45.2Zm24.67,5.4a0.71,0.71,0,1,1-.25.54A0.49,0.49,0,0,1,98.47,50.6Zm-5.4-1.54a0.71,0.71,0,1,1-.25.54A0.49,0.49,0,0,1,93.07,49.05Zm-8.48,0a0.71,0.71,0,1,1-.25.54A0.49,0.49,0,0,1,84.59,49.05ZM73.8,48.28a0.71,0.71,0,1,1-.25.54A0.49,0.49,0,0,1,73.8,48.28Zm11.56,10a0.71,0.71,0,1,1-.25.54A0.49,0.49,0,0,1,85.36,58.31ZM97.7,67.56a0.71,0.71,0,1,1-.25.54A0.49,0.49,0,0,1,97.7,67.56Zm0-10.79a0.71,0.71,0,1,1-.25.54A0.49,0.49,0,0,1,97.7,56.76ZM86.9,49.05a0.71,0.71,0,1,1-.25.54A0.49,0.49,0,0,1,86.9,49.05ZM71.48,51.37a0.71,0.71,0,1,1-.25.54A0.49,0.49,0,0,1,71.48,51.37ZM84.59,66a0.71,0.71,0,1,1-.25.54A0.49,0.49,0,0,1,84.59,66Zm6.94-3.08a0.71,0.71,0,1,1-.25.54A0.49,0.49,0,0,1,91.53,62.93ZM80,58.31a0.71,0.71,0,1,1-.25.54A0.49,0.49,0,0,1,80,58.31ZM92.3,53.68a0.71,0.71,0,1,1-.25.54A0.49,0.49,0,0,1,92.3,53.68Zm3.12-4.63a0.82,0.82,0,1,1-.29.63A0.57,0.57,0,0,1,95.42,49.05ZM77.69,51.37a0.82,0.82,0,1,1-.29.63A0.57,0.57,0,0,1,77.69,51.37Zm3.85,1.54a0.82,0.82,0,1,1-.29.63A0.57,0.57,0,0,1,81.55,52.91Zm-6.17,1.54a0.82,0.82,0,1,1-.29.63A0.57,0.57,0,0,1,75.38,54.45ZM70.75,45.2a0.82,0.82,0,1,1-.29.63A0.57,0.57,0,0,1,70.75,45.2Zm5.4,3.08a0.82,0.82,0,1,1-.29.63A0.57,0.57,0,0,1,76.15,48.28Zm10,6.17a0.82,0.82,0,1,1-.29.63A0.57,0.57,0,0,1,86.17,54.45Zm-5.4-6.17a0.82,0.82,0,1,1-.29.63A0.57,0.57,0,0,1,80.78,48.28Zm13.88,6.94a0.82,0.82,0,1,1-.29.63A0.57,0.57,0,0,1,94.65,55.22Zm-5.4-4.63a0.82,0.82,0,1,1-.29.63A0.57,0.57,0,0,1,89.26,50.6Zm-51.7,6.18a0.57,0.57,0,0,1-.24.65,0.82,0.82,0,0,1-.1-1.25A0.57,0.57,0,0,1,37.55,56.78Zm-5,5a0.57,0.57,0,0,1-.24.65,0.82,0.82,0,0,1-.1-1.25A0.57,0.57,0,0,1,32.55,61.83Zm13.27-8a0.57,0.57,0,0,1-.24.65,0.82,0.82,0,0,1-.1-1.25A0.57,0.57,0,0,1,45.82,53.79Zm-4.88,6.58a0.57,0.57,0,0,1-.24.65,0.82,0.82,0,0,1-.1-1.25A0.57,0.57,0,0,1,40.94,60.37Zm9.49-7a0.57,0.57,0,0,1-.24.65,0.82,0.82,0,0,1-.1-1.25A0.57,0.57,0,0,1,50.43,53.41Zm5.13-3.51a0.38,0.38,0,1,1-.34-0.6A0.57,0.57,0,0,1,55.56,49.9ZM51.7,59.5a0.57,0.57,0,0,1-.24.65,0.82,0.82,0,0,1-.1-1.25A0.57,0.57,0,0,1,51.7,59.5Zm-6.27-1a0.57,0.57,0,0,1-.24.65,0.82,0.82,0,0,1-.1-1.25A0.57,0.57,0,0,1,45.43,58.46Zm3.72-1.85a0.57,0.57,0,0,1-.24.65A0.82,0.82,0,0,1,48.8,56,0.57,0.57,0,0,1,49.14,56.61ZM30.51,54.2a0.57,0.57,0,0,1-.24.65,0.82,0.82,0,0,1-.1-1.25A0.57,0.57,0,0,1,30.51,54.2ZM34.72,60a0.49,0.49,0,0,1-.2.56,0.71,0.71,0,0,1-.09-1.07A0.49,0.49,0,0,1,34.72,60Zm12.67,3.61a0.33,0.33,0,1,1-.29-0.52A0.49,0.49,0,0,1,47.39,63.63ZM36.24,69.17a0.49,0.49,0,0,1-.2.56A0.71,0.71,0,0,1,36,68.66,0.49,0.49,0,0,1,36.24,69.17Zm7.17,2.51a0.49,0.49,0,0,1-.2.56,0.71,0.71,0,0,1-.09-1.07A0.49,0.49,0,0,1,43.41,71.68ZM55.74,47a0.33,0.33,0,1,1-.29-0.52A0.49,0.49,0,0,1,55.74,47Zm-0.46,9A0.33,0.33,0,1,1,55,55.51,0.49,0.49,0,0,1,55.28,56ZM39.73,55a0.49,0.49,0,0,1-.2.56,0.71,0.71,0,0,1-.09-1.07A0.49,0.49,0,0,1,39.73,55ZM29.59,63.52a0.49,0.49,0,0,1-.2.56A0.71,0.71,0,0,1,29.3,63,0.49,0.49,0,0,1,29.59,63.52Zm0.87,10.76a0.49,0.49,0,0,1-.2.56,0.71,0.71,0,0,1-.09-1.07A0.49,0.49,0,0,1,30.47,74.28ZM42,64.06a0.49,0.49,0,0,1-.2.56,0.71,0.71,0,0,1-.09-1.07A0.49,0.49,0,0,1,42,64.06ZM52.73,53.14a0.33,0.33,0,1,1-.29-0.52A0.49,0.49,0,0,1,52.73,53.14ZM42,54.78a0.49,0.49,0,0,1-.2.56,0.71,0.71,0,0,1-.09-1.07A0.49,0.49,0,0,1,42,54.78Zm-8.45.69a0.49,0.49,0,0,1-.2.56,0.71,0.71,0,0,1-.09-1.07A0.49,0.49,0,0,1,33.58,55.47Zm-4.48,2a0.49,0.49,0,0,1-.2.56,0.71,0.71,0,0,1-.09-1.07A0.49,0.49,0,0,1,29.1,57.44ZM57.88,43.9a0.33,0.33,0,1,1-.29-0.52A0.49,0.49,0,0,1,57.88,43.9Zm0,6.5a0.33,0.33,0,1,1-.29-0.52A0.49,0.49,0,0,1,57.92,50.4Z" transform="translate(0)"/><path class="cls-7" d="M86.46,36.09s7.39,18.27,12.4,30.73,5.78,21.07,5.78,21.07,1.28-9-3.73-22.1-12.53-30.9-12.53-30.9Z" transform="translate(0)"/><path class="cls-7" d="M41.42,32S33.71,54.13,29.73,67a69.74,69.74,0,0,0-2.9,24.43A51.65,51.65,0,0,1,27.6,66.1c3.93-13.47,11.65-34.55,11.65-34.55Z" transform="translate(0)"/><path class="cls-5" d="M65,41c1.75,4.26,28.24-8.73,26.2-11.07C88,26.33,63.16,36.68,65,41Z" transform="translate(0)"/><path class="cls-8" d="M88.54,29.21a3.46,3.46,0,0,1,2.61.77C92.91,32,73.53,41.9,67,41.9c-1.06,0-1.78-.26-2-0.85-1.54-3.74,16.36-11.84,23.58-11.84m0-.76c-7.27,0-21.25,6.58-23.85,10.46a2.52,2.52,0,0,0-.43,2.42c0.36,0.88,1.28,1.32,2.73,1.32,5.85,0,23.29-8.22,24.89-11.73a1.29,1.29,0,0,0-.15-1.45,4,4,0,0,0-3.19-1h0Z" transform="translate(0)"/><path class="cls-8" d="M56.56,36.59c-14-5.58-21.21-6.54-22.14-5.41a0.38,0.38,0,0,1-.53.05,0.37,0.37,0,0,1-.05-0.53c1.89-2,13.6,1.37,20.88,4.35,5.17,2.11,7.89,4.2,7.51,5.93C62.18,41.18,62.2,38.84,56.56,36.59Z" transform="translate(0)"/></g></svg>