<?xml version="1.0" encoding="utf-8"?>
<!-- Generator: Adobe Illustrator 19.2.1, SVG Export Plug-In . SVG Version: 6.00 Build 0)  -->
<svg version="1.1" id="Layer_1" xmlns="http://www.w3.org/2000/svg" xmlns:xlink="http://www.w3.org/1999/xlink" x="0px" y="0px"
	 width="1430px" height="566px" viewBox="0 0 1430 566" style="enable-background:new 0 0 1430 566;" xml:space="preserve">
<style type="text/css">
	.st0{fill-rule:evenodd;clip-rule:evenodd;fill:#49BAF2;}
	.st1{fill-rule:evenodd;clip-rule:evenodd;fill:#3BB2ED;}
	.st2{fill-rule:evenodd;clip-rule:evenodd;fill:#2EABEA;}
	.st3{fill-rule:evenodd;clip-rule:evenodd;fill:none;}
</style>
<rect x="0" y="1" class="st0" width="1430" height="564"/>
<path class="st1" d="M0,63.9l1430,15.2v148.8L0,212.1V63.9z"/>
<path class="st2" d="M0,71.1l1430,49.8v93.7L0,165.6V71.1z"/>
<path class="st1" d="M0,282.6l1430-41.7v183L0,466.6V282.6z"/>
<path class="st2" d="M0,307.3l1430-15.8v42.4L0,381.1V307.3z"/>
<path class="st2" d="M0,487.6l1430,13.4V566L0,566V487.6z"/>
<path class="st2" d="M0,0l1430,0v5.9L0,48.3V0z"/>
<path class="st3" d="M0,0l1430,0v566L0,566V0z"/>
</svg>
