<?xml version="1.0" encoding="utf-8"?>
<!-- Generator: Adobe Illustrator 19.1.0, SVG Export Plug-In . SVG Version: 6.00 Build 0)  -->
<svg version="1.1" id="Layer_1" xmlns="http://www.w3.org/2000/svg" xmlns:xlink="http://www.w3.org/1999/xlink" x="0px" y="0px"
	 viewBox="910 910 180 180" style="enable-background:new 910 910 180 180;" xml:space="preserve">
<style type="text/css">
	.st0{fill:#306992;}
	.st1{fill:#F5FCFF;}
</style>
<g>
	<path class="st0" d="M1000,910c49.7,0,90,40.3,90,90c0,49.7-40.3,90-90,90c-49.7,0-90-40.3-90-90C910,950.3,950.3,910,1000,910z"/>
	<path class="st1" d="M1034.4,995.2h-7.6c0.6,2.1,0.9,4.4,0.9,6.7c0,14.7-11.9,26.7-26.7,26.7c-14.7,0-26.7-11.9-26.7-26.7
		c0-2.3,0.3-4.5,0.9-6.7h-7.6v36.7c0,1.8,1.5,3.3,3.3,3.3h60c1.8,0,3.3-1.5,3.3-3.3v-36.7H1034.4z M1034.4,971.8
		c0-1.8-1.5-3.3-3.3-3.3h-10c-1.8,0-3.3,1.5-3.3,3.3v10c0,1.8,1.5,3.3,3.3,3.3h10c1.8,0,3.3-1.5,3.3-3.3V971.8z M1001,985.2
		c-9.2,0-16.7,7.5-16.7,16.7s7.5,16.7,16.7,16.7s16.7-7.5,16.7-16.7C1017.7,992.6,1010.2,985.2,1001,985.2 M1034.4,1045.2h-66.7
		c-5.5,0-10-4.5-10-10v-66.7c0-5.5,4.5-10,10-10h66.7c5.5,0,10,4.5,10,10v66.7C1044.4,1040.7,1039.9,1045.2,1034.4,1045.2"/>
</g>
</svg>
